HIERARCHY
ROOT Hip
{
	OFFSET	0.0000	0.0000	0.0000
	CHANNELS 6 Xposition Yposition Zposition Xrotation Yrotation Zrotation
	JOINT LowerSpine
	{
		OFFSET	0.0000	10.1932	-5.5160
		CHANNELS 3 Xrotation Yrotation Zrotation
		JOINT MiddleSpine
		{
			OFFSET	0.0000	9.3020	0.4860
			CHANNELS 3 Xrotation Yrotation Zrotation
			JOINT Chest
			{
				OFFSET	0.0000	11.5102	-2.5620
				CHANNELS 3 Xrotation Yrotation Zrotation
				JOINT Neck
				{
					OFFSET	0.0000	25.9379	-0.5394
					CHANNELS 3 Xrotation Yrotation Zrotation
					JOINT Head
					{
						OFFSET	-0.0001	14.6474	3.9841
						CHANNELS 3 Xrotation Yrotation Zrotation
						End Site
						{
							OFFSET	0.0001	20.4661	0.6110
						}
					}
				}
				JOINT LClavicle
				{
					OFFSET	2.6187	25.0313	8.5759
					CHANNELS 3 Xrotation Yrotation Zrotation
					JOINT LShoulder
					{
						OFFSET	15.2984	3.5904	-5.8096
						CHANNELS 3 Xrotation Yrotation Zrotation
						JOINT LForearm
						{
							OFFSET	32.4969	-0.1152	-0.2816
							CHANNELS 3 Xrotation Yrotation Zrotation
							JOINT LHand
							{
								OFFSET	27.1093	0.0786	-0.1624
								CHANNELS 3 Xrotation Yrotation Zrotation
								JOINT LFinger1
								{
									OFFSET	10.5068	0.9189	2.9182
									CHANNELS 3 Xrotation Yrotation Zrotation
									JOINT LFinger11
									{
										OFFSET	3.9301	-0.9583	0.6925
										CHANNELS 3 Xrotation Yrotation Zrotation
										JOINT LFinger12
										{
											OFFSET	2.6830	-0.6544	0.4729
											CHANNELS 3 Xrotation Yrotation Zrotation
											End Site
											{
												OFFSET	1.9092	-0.5699	0.3097
											}
										}
									}
								}
								JOINT LFinger2
								{
									OFFSET	10.6636	1.0611	0.2541
									CHANNELS 3 Xrotation Yrotation Zrotation
									JOINT LFinger21
									{
										OFFSET	4.8593	0.0136	-0.0287
										CHANNELS 3 Xrotation Yrotation Zrotation
										JOINT LFinger22
										{
											OFFSET	2.6935	0.0083	-0.0164
											CHANNELS 3 Xrotation Yrotation Zrotation
											End Site
											{
												OFFSET	2.4193	-0.1708	0.0032
											}
										}
									}
								}
								JOINT LFinger3
								{
									OFFSET	10.1060	0.7082	-2.3909
									CHANNELS 3 Xrotation Yrotation Zrotation
									JOINT LFinger31
									{
										OFFSET	4.4093	-0.2232	-0.2761
										CHANNELS 3 Xrotation Yrotation Zrotation
										JOINT LFinger32
										{
											OFFSET	2.5127	-0.1264	-0.1578
											CHANNELS 3 Xrotation Yrotation Zrotation
											End Site
											{
												OFFSET	2.2216	-0.2731	-0.1050
											}
										}
									}
								}
								JOINT LFinger4
								{
									OFFSET	9.3780	-0.7126	-4.1291
									CHANNELS 3 Xrotation Yrotation Zrotation
									JOINT LFinger41
									{
										OFFSET	2.7122	-0.5656	-0.7487
										CHANNELS 3 Xrotation Yrotation Zrotation
										JOINT LFinger42
										{
											OFFSET	1.9889	-0.4142	-0.5494
											CHANNELS 3 Xrotation Yrotation Zrotation
											End Site
											{
												OFFSET	1.7652	-0.4850	-0.4050
											}
										}
									}
								}
								JOINT LFinger0
								{
									OFFSET	2.1735	-1.6451	1.6477
									CHANNELS 3 Xrotation Yrotation Zrotation
									JOINT LFinger01
									{
										OFFSET	4.0467	-1.3289	3.0509
										CHANNELS 3 Xrotation Yrotation Zrotation
										JOINT LFinger02
										{
											OFFSET	2.6647	-0.9535	1.9198
											CHANNELS 3 Xrotation Yrotation Zrotation
											End Site
											{
												OFFSET	1.9595	-0.6745	1.3418
											}
										}
									}
								}
							}
						}
					}
				}
				JOINT RClavicle
				{
					OFFSET	-2.6187	25.0313	8.5759
					CHANNELS 3 Xrotation Yrotation Zrotation
					JOINT RShoulder
					{
						OFFSET	-15.3012	3.5910	-5.8106
						CHANNELS 3 Xrotation Yrotation Zrotation
						JOINT RForearm
						{
							OFFSET	-32.4969	-0.1152	-0.2816
							CHANNELS 3 Xrotation Yrotation Zrotation
							JOINT RHand
							{
								OFFSET	-27.1093	0.0786	-0.1624
								CHANNELS 3 Xrotation Yrotation Zrotation
								JOINT RFinger1
								{
									OFFSET	-10.5069	0.9190	2.9183
									CHANNELS 3 Xrotation Yrotation Zrotation
									JOINT RFinger11
									{
										OFFSET	-3.9301	-0.9583	0.6925
										CHANNELS 3 Xrotation Yrotation Zrotation
										JOINT RFinger12
										{
											OFFSET	-2.6829	-0.6545	0.4729
											CHANNELS 3 Xrotation Yrotation Zrotation
											End Site
											{
												OFFSET	-1.9092	-0.5699	0.3097
											}
										}
									}
								}
								JOINT RFinger2
								{
									OFFSET	-10.6636	1.0612	0.2541
									CHANNELS 3 Xrotation Yrotation Zrotation
									JOINT RFinger21
									{
										OFFSET	-4.8593	0.0136	-0.0287
										CHANNELS 3 Xrotation Yrotation Zrotation
										JOINT RFinger22
										{
											OFFSET	-2.6935	0.0082	-0.0165
											CHANNELS 3 Xrotation Yrotation Zrotation
											End Site
											{
												OFFSET	-2.4193	-0.1708	0.0032
											}
										}
									}
								}
								JOINT RFinger3
								{
									OFFSET	-10.1060	0.7082	-2.3909
									CHANNELS 3 Xrotation Yrotation Zrotation
									JOINT RFinger31
									{
										OFFSET	-4.4093	-0.2232	-0.2761
										CHANNELS 3 Xrotation Yrotation Zrotation
										JOINT RFinger32
										{
											OFFSET	-2.5127	-0.1264	-0.1578
											CHANNELS 3 Xrotation Yrotation Zrotation
											End Site
											{
												OFFSET	-2.2216	-0.2732	-0.1050
											}
										}
									}
								}
								JOINT RFinger4
								{
									OFFSET	-9.3780	-0.7126	-4.1291
									CHANNELS 3 Xrotation Yrotation Zrotation
									JOINT RFinger41
									{
										OFFSET	-2.7122	-0.5656	-0.7487
										CHANNELS 3 Xrotation Yrotation Zrotation
										JOINT RFinger42
										{
											OFFSET	-1.9888	-0.4141	-0.5494
											CHANNELS 3 Xrotation Yrotation Zrotation
											End Site
											{
												OFFSET	-1.7652	-0.4850	-0.4050
											}
										}
									}
								}
								JOINT RFinger0
								{
									OFFSET	-2.1735	-1.6450	1.6476
									CHANNELS 3 Xrotation Yrotation Zrotation
									JOINT RFinger01
									{
										OFFSET	-4.0466	-1.3291	3.0511
										CHANNELS 3 Xrotation Yrotation Zrotation
										JOINT RFinger02
										{
											OFFSET	-2.6646	-0.9534	1.9198
											CHANNELS 3 Xrotation Yrotation Zrotation
											End Site
											{
												OFFSET	-1.9595	-0.6745	1.3418
											}
										}
									}
								}
							}
						}
					}
				}
			}
		}
	}
	JOINT RThigh
	{
		OFFSET	-10.9042	4.6076	-0.8988
		CHANNELS 3 Xrotation Yrotation Zrotation
		JOINT RShin
		{
			OFFSET	-0.8725	-47.4282	0.0000
			CHANNELS 3 Xrotation Yrotation Zrotation
			JOINT RFoot
			{
				OFFSET	0.0000	-46.5716	0.0000
				CHANNELS 3 Xrotation Yrotation Zrotation
				JOINT RToe
				{
					OFFSET	0.0000	-5.1186	10.7037
					CHANNELS 3 Xrotation Yrotation Zrotation
					End Site
					{
						OFFSET	0.0000	0.0000	7.1807
					}
				}
			}
		}
	}
	JOINT LThigh
	{
		OFFSET	10.9040	4.6079	-0.8988
		CHANNELS 3 Xrotation Yrotation Zrotation
		JOINT LShin
		{
			OFFSET	0.8726	-47.4285	0.0000
			CHANNELS 3 Xrotation Yrotation Zrotation
			JOINT LFoot
			{
				OFFSET	0.0000	-46.5716	0.0000
				CHANNELS 3 Xrotation Yrotation Zrotation
				JOINT LToe
				{
					OFFSET	0.0000	-5.1187	10.7038
					CHANNELS 3 Xrotation Yrotation Zrotation
					End Site
					{
						OFFSET	0.0000	0.0000	7.1807
					}
				}
			}
		}
	}
}
MOTION
Frames:	8
Frame Time: 0.0333333000
	3.4744	93.9371	-103.9589	30.547810	19.542460	-29.768760	0.000000	0.000000	0.000000	-4.824419	5.323496	-0.982906	-16.118810	17.926440	-1.518266	0.000000	0.000000	0.000000	2.215073	-19.811500	5.970637	0.000000	0.000000	-14.558800	45.459980	-59.821740	-27.408700	0.000000	-27.283920	0.000000	0.000000	0.000000	0.000000	0.000000	0.000000	0.000000	0.000000	0.000000	0.000000	0.000000	0.000000	0.000000	0.000000	0.000000	0.000000	0.000000	0.000000	0.000000	0.000000	0.000000	0.000000	0.000000	0.000000	0.000000	0.000000	0.000000	0.000000	0.000000	0.000000	0.000000	0.000000	0.000000	0.000000	0.000000	0.000000	0.000000	0.000000	0.000000	0.000000	0.000000	0.000000	0.000000	0.000000	0.000000	0.000000	0.000000	0.000000	0.000000	0.000000	0.000000	7.140403	-17.164110	75.577670	49.787780	0.000000	29.472650	0.000000	27.024900	32.296980	-25.507880	0.000000	0.000000	0.000000	0.000000	0.000000	0.000000	0.000000	0.000000	0.000000	0.000000	0.000000	0.000000	0.000000	0.000000	0.000000	0.000000	0.000000	0.000000	0.000000	0.000000	0.000000	0.000000	0.000000	0.000000	0.000000	0.000000	0.000000	0.000000	0.000000	0.000000	0.000000	0.000000	0.000000	0.000000	0.000000	0.000000	0.000000	0.000000	0.000000	0.000000	0.000000	0.000000	0.000000	0.000000	0.000000	-47.624330	-12.092760	8.912958	29.143960	0.000003	-0.000001	0.042975	0.029975	0.011824	0.000000	0.000000	0.000000	-56.626850	-18.007440	9.150684	35.560820	0.000003	0.000000	-7.631535	-3.435141	-1.921647	0.000000	0.000000	0.000000
	4.3955	94.6064	-103.3602	29.816510	21.643220	-28.884830	0.000000	0.000000	0.000000	-4.904871	5.179567	-0.881668	-16.417080	17.418030	-1.196262	0.000000	0.000000	0.000000	3.108482	-21.926200	5.718051	0.000000	0.000000	-13.916700	65.844150	-60.977490	-7.187175	0.000000	-28.100510	0.000000	0.000000	0.000000	0.000000	0.000000	0.000000	0.000000	0.000000	0.000000	0.000000	0.000000	0.000000	0.000000	0.000000	0.000000	0.000000	0.000000	0.000000	0.000000	0.000000	0.000000	0.000000	0.000000	0.000000	0.000000	0.000000	0.000000	0.000000	0.000000	0.000000	0.000000	0.000000	0.000000	0.000000	0.000000	0.000000	0.000000	0.000000	0.000000	0.000000	0.000000	0.000000	0.000000	0.000000	0.000000	0.000000	0.000000	0.000000	0.000000	0.000000	0.000000	8.324180	-22.520000	66.154670	59.501660	0.000000	31.657180	0.000000	23.889960	34.038120	-30.760430	0.000000	0.000000	0.000000	0.000000	0.000000	0.000000	0.000000	0.000000	0.000000	0.000000	0.000000	0.000000	0.000000	0.000000	0.000000	0.000000	0.000000	0.000000	0.000000	0.000000	0.000000	0.000000	0.000000	0.000000	0.000000	0.000000	0.000000	0.000000	0.000000	0.000000	0.000000	0.000000	0.000000	0.000000	0.000000	0.000000	0.000000	0.000000	0.000000	0.000000	0.000000	0.000000	0.000000	0.000000	0.000000	-44.589040	-6.114536	8.341675	24.878530	0.000002	-0.000001	-0.851804	0.718968	0.354117	0.000000	0.000000	0.000000	-54.569550	-11.373330	8.833165	31.032440	0.000003	0.000000	-5.534487	-1.766458	-0.877712	0.000000	0.000000	0.000000
	5.0498	94.9969	-103.2912	29.092600	22.662550	-27.876810	0.000000	0.000000	0.000000	-4.964903	5.078658	-0.744522	-16.661570	17.039110	-0.745020	0.000000	0.000000	0.000000	3.236521	-23.719880	5.276034	0.000000	0.000000	-13.615710	73.503400	-60.817810	0.779633	0.000000	-28.470280	0.000000	0.000000	0.000000	0.000000	0.000000	0.000000	0.000000	0.000000	0.000000	0.000000	0.000000	0.000000	0.000000	0.000000	0.000000	0.000000	0.000000	0.000000	0.000000	0.000000	0.000000	0.000000	0.000000	0.000000	0.000000	0.000000	0.000000	0.000000	0.000000	0.000000	0.000000	0.000000	0.000000	0.000000	0.000000	0.000000	0.000000	0.000000	0.000000	0.000000	0.000000	0.000000	0.000000	0.000000	0.000000	0.000000	0.000000	0.000000	0.000000	0.000000	0.000000	9.448141	-23.612310	55.918570	64.370720	0.000000	34.161960	0.000000	24.850470	34.796310	-31.567610	0.000000	0.000000	0.000000	0.000000	0.000000	0.000000	0.000000	0.000000	0.000000	0.000000	0.000000	0.000000	0.000000	0.000000	0.000000	0.000000	0.000000	0.000000	0.000000	0.000000	0.000000	0.000000	0.000000	0.000000	0.000000	0.000000	0.000000	0.000000	0.000000	0.000000	0.000000	0.000000	0.000000	0.000000	0.000000	0.000000	0.000000	0.000000	0.000000	0.000000	0.000000	0.000000	0.000000	0.000000	0.000000	-42.278340	-4.152712	7.883979	22.128340	0.000002	-0.000001	-1.549078	0.511071	0.257040	0.000000	0.000000	0.000000	-52.932700	-9.605627	8.083374	28.808980	0.000003	0.000000	-4.227447	-2.801001	-1.491603	0.000000	0.000000	0.000000
	5.4622	95.1155	-103.7348	28.184980	21.774400	-26.421210	0.000000	0.000000	0.000000	-5.144997	4.992489	-0.671936	-17.291850	16.726960	-0.467100	0.000000	0.000000	0.000000	3.215445	-23.784180	5.092884	0.000000	0.000000	-13.553020	71.978890	-60.736880	-0.135282	0.000000	-28.670050	0.000000	0.000000	0.000000	0.000000	0.000000	0.000000	0.000000	0.000000	0.000000	0.000000	0.000000	0.000000	0.000000	0.000000	0.000000	0.000000	0.000000	0.000000	0.000000	0.000000	0.000000	0.000000	0.000000	0.000000	0.000000	0.000000	0.000000	0.000000	0.000000	0.000000	0.000000	0.000000	0.000000	0.000000	0.000000	0.000000	0.000000	0.000000	0.000000	0.000000	0.000000	0.000000	0.000000	0.000000	0.000000	0.000000	0.000000	0.000000	0.000000	0.000000	0.000000	10.488080	-23.152710	47.507230	67.662960	0.000000	37.619930	0.000000	26.137640	35.141420	-30.858500	0.000000	0.000000	0.000000	0.000000	0.000000	0.000000	0.000000	0.000000	0.000000	0.000000	0.000000	0.000000	0.000000	0.000000	0.000000	0.000000	0.000000	0.000000	0.000000	0.000000	0.000000	0.000000	0.000000	0.000000	0.000000	0.000000	0.000000	0.000000	0.000000	0.000000	0.000000	0.000000	0.000000	0.000000	0.000000	0.000000	0.000000	0.000000	0.000000	0.000000	0.000000	0.000000	0.000000	0.000000	0.000000	-41.853790	-3.182609	7.759825	21.842050	0.000002	-0.000001	-1.277561	-0.103484	-0.048999	0.000000	0.000000	0.000000	-52.125980	-12.319900	7.684051	30.538040	0.000003	0.000000	-3.970315	-5.468877	-2.904004	0.000000	0.000000	0.000000
	5.8099	95.1575	-104.3109	27.161420	19.193610	-24.422210	0.000000	0.000000	0.000000	-5.445049	4.895536	-0.664783	-18.305840	16.400620	-0.374381	0.000000	0.000000	0.000000	4.257681	-20.206780	4.682403	0.000000	0.000000	-13.642950	66.039630	-60.137390	-6.207384	0.000000	-28.537310	0.000000	0.000000	0.000000	0.000000	0.000000	0.000000	0.000000	0.000000	0.000000	0.000000	0.000000	0.000000	0.000000	0.000000	0.000000	0.000000	0.000000	0.000000	0.000000	0.000000	0.000000	0.000000	0.000000	0.000000	0.000000	0.000000	0.000000	0.000000	0.000000	0.000000	0.000000	0.000000	0.000000	0.000000	0.000000	0.000000	0.000000	0.000000	0.000000	0.000000	0.000000	0.000000	0.000000	0.000000	0.000000	0.000000	0.000000	0.000000	0.000000	0.000000	0.000000	11.504050	-20.836870	42.065420	69.483200	0.000000	41.142790	0.000000	31.480590	37.016300	-27.037080	0.000000	0.000000	0.000000	0.000000	0.000000	0.000000	0.000000	0.000000	0.000000	0.000000	0.000000	0.000000	0.000000	0.000000	0.000000	0.000000	0.000000	0.000000	0.000000	0.000000	0.000000	0.000000	0.000000	0.000000	0.000000	0.000000	0.000000	0.000000	0.000000	0.000000	0.000000	0.000000	0.000000	0.000000	0.000000	0.000000	0.000000	0.000000	0.000000	0.000000	0.000000	0.000000	0.000000	0.000000	0.000000	-42.724750	-2.607722	7.858633	22.987780	0.000002	-0.000001	-0.416663	0.277201	0.138515	0.000000	0.000000	0.000000	-52.607190	-12.794620	8.141197	34.049510	0.000003	0.000000	-3.349003	-5.686827	-2.928703	0.000000	0.000000	0.000000
	6.3664	95.1749	-104.8855	26.042000	15.508570	-21.686700	0.000000	0.000000	0.000000	-5.757132	4.794297	-0.693784	-19.346880	16.072720	-0.404755	0.000000	0.000000	0.000000	3.191841	-18.881620	4.726236	0.000000	0.000000	-13.926180	57.637130	-59.126240	-15.128550	0.000000	-28.339490	0.000000	0.000000	0.000000	0.000000	0.000000	0.000000	0.000000	0.000000	0.000000	0.000000	0.000000	0.000000	0.000000	0.000000	0.000000	0.000000	0.000000	0.000000	0.000000	0.000000	0.000000	0.000000	0.000000	0.000000	0.000000	0.000000	0.000000	0.000000	0.000000	0.000000	0.000000	0.000000	0.000000	0.000000	0.000000	0.000000	0.000000	0.000000	0.000000	0.000000	0.000000	0.000000	0.000000	0.000000	0.000000	0.000000	0.000000	0.000000	0.000000	0.000000	0.000000	12.424360	-17.215850	40.374700	70.325280	0.000000	43.105010	0.000000	25.623440	36.937930	-30.166200	0.000000	0.000000	0.000000	0.000000	0.000000	0.000000	0.000000	0.000000	0.000000	0.000000	0.000000	0.000000	0.000000	0.000000	0.000000	0.000000	0.000000	0.000000	0.000000	0.000000	0.000000	0.000000	0.000000	0.000000	0.000000	0.000000	0.000000	0.000000	0.000000	0.000000	0.000000	0.000000	0.000000	0.000000	0.000000	0.000000	0.000000	0.000000	0.000000	0.000000	0.000000	0.000000	0.000000	0.000000	0.000000	-44.117300	-2.576596	7.783798	24.779270	0.000002	-0.000001	0.185909	0.528732	0.243644	0.000000	0.000000	0.000000	-53.267970	-8.687425	9.420246	36.284690	0.000004	0.000000	-1.787952	-3.031409	-1.511261	0.000000	0.000000	0.000000
	7.2190	95.1130	-105.3117	24.607120	11.659390	-18.562300	0.000000	0.000000	0.000000	-6.009661	4.726083	-0.741372	-20.181840	15.863040	-0.508357	0.000000	0.000000	0.000000	3.696243	-15.192810	4.590493	0.000000	0.000000	-14.223710	51.351850	-58.415070	-21.808840	0.000000	-26.622100	0.000000	0.000000	0.000000	0.000000	0.000000	0.000000	0.000000	0.000000	0.000000	0.000000	0.000000	0.000000	0.000000	0.000000	0.000000	0.000000	0.000000	0.000000	0.000000	0.000000	0.000000	0.000000	0.000000	0.000000	0.000000	0.000000	0.000000	0.000000	0.000000	0.000000	0.000000	0.000000	0.000000	0.000000	0.000000	0.000000	0.000000	0.000000	0.000000	0.000000	0.000000	0.000000	0.000000	0.000000	0.000000	0.000000	0.000000	0.000000	0.000000	0.000000	0.000000	13.222660	-11.353620	41.833690	68.471210	0.000000	43.710240	0.000000	19.637690	36.841820	-31.598900	0.000000	0.000000	0.000000	0.000000	0.000000	0.000000	0.000000	0.000000	0.000000	0.000000	0.000000	0.000000	0.000000	0.000000	0.000000	0.000000	0.000000	0.000000	0.000000	0.000000	0.000000	0.000000	0.000000	0.000000	0.000000	0.000000	0.000000	0.000000	0.000000	0.000000	0.000000	0.000000	0.000000	0.000000	0.000000	0.000000	0.000000	0.000000	0.000000	0.000000	0.000000	0.000000	0.000000	0.000000	0.000000	-45.071770	-2.584035	7.471517	26.871890	0.000002	-0.000001	0.158782	-0.559589	-0.265334	0.000000	0.000000	0.000000	-52.746840	-2.604011	10.924580	36.292880	0.000004	0.000000	-1.347005	-1.269614	-0.638187	0.000000	0.000000	0.000000
	8.2285	94.9861	-105.3597	22.747480	8.346292	-15.576680	0.000000	0.000000	0.000000	-6.142754	4.699346	-0.772840	-20.620620	15.786420	-0.581733	0.000000	0.000000	0.000000	4.482875	-11.823160	4.582429	0.000000	0.000000	-14.400760	46.260690	-57.087240	-27.290080	0.000000	-21.963890	0.000000	0.000000	0.000000	0.000000	0.000000	0.000000	0.000000	0.000000	0.000000	0.000000	0.000000	0.000000	0.000000	0.000000	0.000000	0.000000	0.000000	0.000000	0.000000	0.000000	0.000000	0.000000	0.000000	0.000000	0.000000	0.000000	0.000000	0.000000	0.000000	0.000000	0.000000	0.000000	0.000000	0.000000	0.000000	0.000000	0.000000	0.000000	0.000000	0.000000	0.000000	0.000000	0.000000	0.000000	0.000000	0.000000	0.000000	0.000000	0.000000	0.000000	0.000000	13.961540	-2.106429	44.184110	63.274800	0.000000	45.068900	0.000000	9.594219	35.621370	-33.022230	0.000000	0.000000	0.000000	0.000000	0.000000	0.000000	0.000000	0.000000	0.000000	0.000000	0.000000	0.000000	0.000000	0.000000	0.000000	0.000000	0.000000	0.000000	0.000000	0.000000	0.000000	0.000000	0.000000	0.000000	0.000000	0.000000	0.000000	0.000000	0.000000	0.000000	0.000000	0.000000	0.000000	0.000000	0.000000	0.000000	0.000000	0.000000	0.000000	0.000000	0.000000	0.000000	0.000000	0.000000	0.000000	-44.552590	-2.458075	7.087221	28.460300	0.000003	-0.000001	-0.289373	-1.720566	-0.818882	0.000000	0.000000	0.000000	-50.742290	3.213417	12.091100	34.878350	0.000003	0.000000	-3.443130	-2.722910	-1.382980	0.000000	0.000000	0.000000
